<svg width="76" height="22" viewBox="0 0 76 22" fill="none" xmlns="http://www.w3.org/2000/svg">
<path d="M9.25781 10.2812L13.6963 0.671875H18.501L11.499 14.2656V22H7.03125V14.2656L0.0292969 0.671875H4.84863L9.25781 10.2812ZM30.293 17.6055H22.5879L21.123 22H16.4502L24.3896 0.671875H28.4619L36.4453 22H31.7725L30.293 17.6055ZM23.7744 14.0459H29.1064L26.4258 6.0625L23.7744 14.0459ZM46.333 14.1924H42.832V22H38.4375V0.671875H46.3623C48.8818 0.671875 50.8252 1.2334 52.1924 2.35645C53.5596 3.47949 54.2432 5.06641 54.2432 7.11719C54.2432 8.57227 53.9258 9.78809 53.291 10.7646C52.666 11.7314 51.7139 12.5029 50.4346 13.0791L55.0488 21.7949V22H50.332L46.333 14.1924ZM42.832 10.6328H46.377C47.4805 10.6328 48.335 10.3545 48.9404 9.79785C49.5459 9.23145 49.8486 8.45508 49.8486 7.46875C49.8486 6.46289 49.5605 5.67187 48.9844 5.0957C48.418 4.51953 47.5439 4.23145 46.3623 4.23145H42.832V10.6328ZM69.6387 17.6055H61.9336L60.4688 22H55.7959L63.7354 0.671875H67.8076L75.791 22H71.1182L69.6387 17.6055ZM63.1201 14.0459H68.4521L65.7715 6.0625L63.1201 14.0459Z" fill="#7854F6"/>
</svg>
